<?xml version="1.0" encoding="UTF-8"?>
<svg width="33px" height="16px" viewBox="0 0 33 16" version="1.1" xmlns="http://www.w3.org/2000/svg" xmlns:xlink="http://www.w3.org/1999/xlink">
    <!-- Generator: Sketch 48.1 (47250) - http://www.bohemiancoding.com/sketch -->
    <title>Fill 1</title>
    <desc>Created with Sketch.</desc>
    <defs></defs>
    <g id="Page" stroke="none" stroke-width="1" fill="none" fill-rule="evenodd" transform="translate(-708.000000, -1086.000000)">
        <g id="Group" transform="translate(278.000000, 1086.000000)" fill="#000203">
            <path d="M456.794861,4.62679047 C455.123296,3.30659024 453.583493,1.76420367 452.176744,-0.000369230769 C452.18837,1.42963238 452.423474,2.76145864 452.885931,3.99510954 C453.347097,5.23005221 454.026574,6.37715378 454.926945,7.43770602 L451.396508,7.43770602 C448.203225,7.43770602 445.874144,6.9274525 444.409264,5.90694548 C442.944385,4.88643846 442.120228,3.22262447 441.936795,0.91679531 L430.000738,0.91679531 C430.137667,2.62323807 430.635003,4.05323968 431.487578,5.20680015 C432.340154,6.35906884 433.593182,7.28785941 435.240202,7.9905883 C433.604808,8.69460897 432.362114,9.62339954 431.514706,10.7756682 C430.666006,11.9292287 430.162211,13.3643974 430.000738,15.083758 L441.936795,15.083758 C442.120228,12.7766371 442.944385,11.1128231 444.409264,10.0923161 C445.874144,9.07180904 448.203225,8.56155552 451.396508,8.56155552 L454.926945,8.56155552 C454.026574,9.61177351 453.347097,10.7562915 452.885931,11.9951095 C452.423474,13.2352193 452.18837,14.5696292 452.176744,15.9996308 C453.571867,14.2466839 455.106503,12.7081727 456.784527,11.3815135 C458.463842,10.0561462 460.300755,8.92583778 462.295265,7.9905883 C460.300755,7.06825664 458.466426,5.94699069 456.794861,4.62679047" id="Fill-1"></path>
        </g>
    </g>
</svg>