<?xml version="1.0" encoding="utf-8"?>
<!-- Generator: Adobe Illustrator 15.0.2, SVG Export Plug-In . SVG Version: 6.00 Build 0)  -->
<!DOCTYPE svg PUBLIC "-//W3C//DTD SVG 1.1//EN" "http://www.w3.org/Graphics/SVG/1.1/DTD/svg11.dtd">
<svg version="1.1" id="newsletter" xmlns="http://www.w3.org/2000/svg" xmlns:xlink="http://www.w3.org/1999/xlink" x="0px" y="0px"
	 width="200px" height="200px" viewBox="0 0 200 200" enable-background="new 0 0 200 200" xml:space="preserve">
<g>
	<g>
		<path d="M59,164.513h-3V74.589h-7v89.924h-3V73.089c0-0.829,0.672-1.5,1.5-1.5h10c0.828,0,1.5,0.671,1.5,1.5V164.513z"/>
		<path d="M154,164.513h-3V74.589h-7v89.924h-3V73.089c0-0.829,0.672-1.5,1.5-1.5h10c0.828,0,1.5,0.671,1.5,1.5V164.513z"/>
	</g>
	<g>
		<rect x="27.182" y="36.987" fill="#00989D" width="145.637" height="97.439"/>
		<path d="M174.318,135.927H25.682V35.487h148.637V135.927z M28.682,132.927h142.637V38.487H28.682V132.927z"/>
	</g>
	<g>
		<path fill="#00989D" d="M169.818,124.3c0,3.937-3.19,7.127-7.127,7.127H37.309c-3.936,0-7.126-3.19-7.126-7.127V47.114
			c0-3.936,3.19-7.126,7.126-7.126h125.382c3.937,0,7.127,3.191,7.127,7.126V124.3z"/>
		<path fill="#F4F1E0" d="M162.691,132.927H37.309c-4.756,0-8.626-3.87-8.626-8.627V47.114c0-4.757,3.87-8.627,8.626-8.627h125.383
			c4.757,0,8.627,3.87,8.627,8.627V124.3C171.318,129.057,167.448,132.927,162.691,132.927z M37.309,41.487
			c-3.102,0-5.626,2.524-5.626,5.627V124.3c0,3.103,2.524,5.627,5.626,5.627h125.383c3.103,0,5.627-2.524,5.627-5.627V47.114
			c0-3.103-2.524-5.627-5.627-5.627H37.309z"/>
	</g>
	<g>
		<path fill="#F4F1E0" d="M42.414,66.61l1.377-1.713c0.752,0.656,1.664,1.265,2.785,1.265c0.896,0,1.44-0.448,1.44-1.104v-0.016
			c0-0.561-0.32-0.913-1.921-1.521c-1.984-0.769-3.217-1.521-3.217-3.441v-0.032c0-1.953,1.504-3.281,3.665-3.281
			c1.312,0,2.593,0.448,3.617,1.376l-1.296,1.761c-0.705-0.576-1.521-1.04-2.386-1.04c-0.8,0-1.296,0.4-1.296,0.977v0.016
			c0,0.641,0.384,0.944,2.129,1.665c1.952,0.769,3.009,1.601,3.009,3.345v0.032c0,2.081-1.585,3.361-3.762,3.361
			C45.136,68.259,43.646,67.763,42.414,66.61z"/>
		<path fill="#F4F1E0" d="M52.643,56.559h2.369v2.064h-2.369V56.559z M52.69,59.535h2.273v8.579H52.69V59.535z"/>
		<path fill="#F4F1E0" d="M57.688,69.843l0.704-1.76c0.688,0.384,1.537,0.624,2.434,0.624c1.425,0,2.112-0.656,2.112-2.032V66.13
			c-0.576,0.753-1.248,1.345-2.4,1.345c-1.697,0-3.201-1.328-3.201-4.033v-0.048c0-2.705,1.521-4.019,3.201-4.019
			c1.168,0,1.841,0.593,2.385,1.265v-1.104h2.272v7.011c0,1.361-0.336,2.338-0.976,2.994c-0.721,0.703-1.81,1.023-3.266,1.023
			C59.753,70.563,58.68,70.308,57.688,69.843z M62.954,63.425v-0.016c0-1.265-0.721-2.081-1.681-2.081
			c-0.961,0-1.665,0.816-1.665,2.081v0.016c0,1.297,0.704,2.097,1.665,2.097C62.233,65.521,62.954,64.706,62.954,63.425z"/>
		<path fill="#F4F1E0" d="M67.893,59.535h2.272v1.153c0.497-0.688,1.121-1.313,2.209-1.313c1.601,0,2.529,1.121,2.529,2.897v5.842
			h-2.272v-5.169c0-1.009-0.448-1.521-1.217-1.521c-0.752,0-1.249,0.513-1.249,1.521v5.169h-2.272V59.535z"/>
		<path fill="#F4F1E0" d="M81.78,65.378v-5.843h2.257v5.171c0,1.008,0.448,1.521,1.217,1.521c0.768,0,1.248-0.513,1.248-1.521
			v-5.171h2.273v8.579h-2.273v-1.151c-0.48,0.688-1.12,1.312-2.192,1.312C82.692,68.274,81.78,67.154,81.78,65.378z"/>
		<path fill="#F4F1E0" d="M91.474,59.535h2.272v1.185c0.496-0.72,1.185-1.345,2.321-1.345c1.696,0,3.265,1.393,3.265,4.322v0.256
			c0,2.93-1.553,4.321-3.265,4.321c-1.152,0-1.841-0.624-2.321-1.264v3.521h-2.272V59.535z M97.06,63.905v-0.16
			c0-1.456-0.721-2.385-1.665-2.385s-1.681,0.929-1.681,2.385v0.16c0,1.457,0.736,2.385,1.681,2.385S97.06,65.362,97.06,63.905z"/>
		<path fill="#F4F1E0" d="M106.386,61.456h-0.864V59.6h0.864v-0.576c0-0.881,0.224-1.505,0.64-1.921
			c0.433-0.433,1.057-0.641,1.873-0.641c0.624,0,1.041,0.08,1.409,0.192v1.873c-0.272-0.08-0.513-0.145-0.833-0.145
			c-0.528,0-0.832,0.272-0.832,0.881V59.6h1.665v1.856h-1.649v6.658h-2.272V61.456z"/>
		<path fill="#F4F1E0" d="M111.838,63.938v-0.176c0-2.546,1.729-4.387,4.05-4.387s4.018,1.81,4.018,4.37v0.176
			c0,2.546-1.713,4.386-4.033,4.386C113.551,68.307,111.838,66.498,111.838,63.938z M117.664,63.905v-0.112
			c0-1.393-0.704-2.448-1.792-2.448c-1.137,0-1.793,1.04-1.793,2.433v0.112c0,1.376,0.72,2.448,1.809,2.448
			C117.008,66.338,117.664,65.298,117.664,63.905z"/>
		<path fill="#F4F1E0" d="M122.237,59.535h2.273v1.521c0.416-1.04,1.104-1.729,2.32-1.664v2.465h-0.096
			c-1.393,0-2.225,0.864-2.225,2.657v3.601h-2.273V59.535z"/>
		<path fill="#F4F1E0" d="M132.958,63.938v-0.176c0-2.546,1.729-4.387,4.05-4.387s4.018,1.81,4.018,4.37v0.176
			c0,2.546-1.713,4.386-4.034,4.386C134.671,68.307,132.958,66.498,132.958,63.938z M138.784,63.905v-0.112
			c0-1.393-0.704-2.448-1.793-2.448c-1.136,0-1.792,1.04-1.792,2.433v0.112c0,1.376,0.72,2.448,1.809,2.448
			C138.128,66.338,138.784,65.298,138.784,63.905z"/>
		<path fill="#F4F1E0" d="M143.301,65.378v-5.843h2.257v5.171c0,1.008,0.448,1.521,1.216,1.521c0.769,0,1.249-0.513,1.249-1.521
			v-5.171h2.272v8.579h-2.272v-1.151c-0.48,0.688-1.12,1.312-2.193,1.312C144.213,68.274,143.301,67.154,143.301,65.378z"/>
		<path fill="#F4F1E0" d="M152.992,59.535h2.273v1.521c0.416-1.04,1.104-1.729,2.32-1.664v2.465h-0.096
			c-1.393,0-2.225,0.864-2.225,2.657v3.601h-2.273V59.535z"/>
		<path fill="#F4F1E0" d="M59.007,76.11h2.129l4.289,6.531V76.11h2.273v11.205h-1.985l-4.434-6.771v6.771h-2.272V76.11z"/>
		<path fill="#F4F1E0" d="M70.248,83.121v-0.144c0-2.545,1.585-4.402,3.745-4.402c2.449,0,3.649,2.001,3.649,4.562
			c0,0.127,0,0.4-0.016,0.736h-5.122c0.192,1.137,0.896,1.729,1.856,1.729c0.705,0,1.249-0.32,1.793-0.849l1.169,1.376
			c-0.785,0.865-1.777,1.377-3.058,1.377C71.993,87.507,70.248,85.794,70.248,83.121z M75.45,82.369
			c-0.096-1.185-0.608-1.921-1.457-1.921c-0.832,0-1.376,0.704-1.504,1.921H75.45z"/>
		<path fill="#F4F1E0" d="M79.105,78.735h2.288l1.169,5.074l1.328-5.105h1.938l1.344,5.121l1.185-5.09h2.257l-2.305,8.644h-2.097
			l-1.36-5.09l-1.393,5.09h-2.081L79.105,78.735z"/>
		<path fill="#F4F1E0" d="M91.854,86.29l0.992-1.6c0.769,0.592,1.585,0.96,2.289,0.96c0.641,0,0.912-0.304,0.912-0.656v-0.032
			c0-0.496-0.64-0.704-1.568-1.104c-1.217-0.528-2.257-1.136-2.257-2.593v-0.032c0-1.648,1.28-2.625,2.945-2.625
			c0.929,0,1.969,0.32,2.833,0.929l-0.912,1.633c-0.641-0.416-1.345-0.736-1.953-0.736c-0.544,0-0.832,0.271-0.832,0.607v0.032
			c0,0.448,0.64,0.704,1.553,1.12c1.248,0.593,2.272,1.217,2.272,2.578v0.031c0,1.777-1.312,2.674-3.025,2.674
			C94.095,87.476,92.894,87.139,91.854,86.29z"/>
		<path fill="#F4F1E0" d="M100.455,75.759h2.273v11.557h-2.273V75.759z"/>
		<path fill="#F4F1E0" d="M105.096,83.121v-0.144c0-2.545,1.584-4.402,3.745-4.402c2.449,0,3.649,2.001,3.649,4.562
			c0,0.127,0,0.4-0.016,0.736h-5.122c0.191,1.137,0.896,1.729,1.856,1.729c0.704,0,1.249-0.32,1.793-0.849l1.168,1.376
			c-0.784,0.865-1.776,1.377-3.057,1.377C106.84,87.507,105.096,85.794,105.096,83.121z M110.298,82.369
			c-0.097-1.185-0.608-1.921-1.457-1.921c-0.832,0-1.377,0.704-1.505,1.921H110.298z"/>
		<path fill="#F4F1E0" d="M115.045,85.17v-4.514h-0.864v-1.921h0.864v-2.193h2.272v2.193h1.697v1.921h-1.697v4.05
			c0,0.496,0.225,0.736,0.705,0.736c0.352,0,0.688-0.096,0.976-0.24v1.809c-0.448,0.256-0.992,0.448-1.681,0.448
			C116.005,87.459,115.045,86.946,115.045,85.17z"/>
		<path fill="#F4F1E0" d="M121.723,85.17v-4.514h-0.864v-1.921h0.864v-2.193h2.272v2.193h1.697v1.921h-1.697v4.05
			c0,0.496,0.225,0.736,0.705,0.736c0.352,0,0.688-0.096,0.976-0.24v1.809c-0.448,0.256-0.992,0.448-1.681,0.448
			C122.683,87.459,121.723,86.946,121.723,85.17z"/>
		<path fill="#F4F1E0" d="M127.497,83.121v-0.144c0-2.545,1.584-4.402,3.745-4.402c2.449,0,3.649,2.001,3.649,4.562
			c0,0.127,0,0.4-0.016,0.736h-5.122c0.191,1.137,0.896,1.729,1.856,1.729c0.704,0,1.249-0.32,1.793-0.849l1.168,1.376
			c-0.784,0.865-1.776,1.377-3.057,1.377C129.241,87.507,127.497,85.794,127.497,83.121z M132.699,82.369
			c-0.097-1.185-0.608-1.921-1.457-1.921c-0.832,0-1.377,0.704-1.505,1.921H132.699z"/>
		<path fill="#F4F1E0" d="M137.217,78.735h2.273v1.521c0.416-1.04,1.104-1.729,2.32-1.665v2.466h-0.096
			c-1.393,0-2.225,0.864-2.225,2.657v3.602h-2.273V78.735z"/>
	</g>
	<g>
		<polygon fill="#F4F1E0" points="104.431,105.882 114.5,112.956 114.5,98.806 		"/>
		<polygon fill="#F4F1E0" points="95.569,105.882 85.5,98.806 85.5,112.956 		"/>
		<path fill="#F4F1E0" d="M113.76,114.881l-11.068-7.777l-2.117,1.487c-0.172,0.121-0.373,0.182-0.574,0.182
			s-0.402-0.061-0.574-0.182l-2.117-1.487l-11.069,7.778L113.76,114.881z"/>
		<polygon fill="#F4F1E0" points="100,106.55 113.76,96.882 86.239,96.882 		"/>
	</g>
</g>
</svg>
