<?xml version="1.0" encoding="utf-8"?>
<!-- Generator: Adobe Illustrator 15.0.2, SVG Export Plug-In . SVG Version: 6.00 Build 0)  -->
<!DOCTYPE svg PUBLIC "-//W3C//DTD SVG 1.1//EN" "http://www.w3.org/Graphics/SVG/1.1/DTD/svg11.dtd">
<svg version="1.1" id="subcribe" xmlns="http://www.w3.org/2000/svg" xmlns:xlink="http://www.w3.org/1999/xlink" x="0px" y="0px"
	 width="200px" height="200px" viewBox="0 0 200 200" enable-background="new 0 0 200 200" xml:space="preserve">
<g>
	<g>
		<path d="M59,164.513h-3V74.588h-7v89.924h-3V73.088c0-0.829,0.671-1.5,1.5-1.5h10c0.829,0,1.5,0.671,1.5,1.5V164.513z"/>
		<path d="M154,164.513h-3V74.588h-7v89.924h-3V73.088c0-0.829,0.672-1.5,1.5-1.5h10c0.828,0,1.5,0.671,1.5,1.5V164.513z"/>
	</g>
	<g>
		<rect x="27.182" y="36.987" fill="#00989D" width="145.637" height="97.44"/>
		<path d="M174.318,135.927H25.682V35.487h148.637V135.927z M28.682,132.927h142.637v-94.44H28.682V132.927z"/>
	</g>
	<g>
		<path fill="#00989D" d="M169.818,124.298c0,3.937-3.19,7.127-7.127,7.127H37.309c-3.936,0-7.126-3.19-7.126-7.127V47.113
			c0-3.936,3.19-7.126,7.126-7.126h125.382c3.937,0,7.127,3.191,7.127,7.126V124.298z"/>
		<path fill="#F4F1E0" d="M162.691,132.925H37.309c-4.757,0-8.626-3.87-8.626-8.627V47.113c0-4.757,3.87-8.626,8.626-8.626h125.382
			c4.758,0,8.627,3.87,8.627,8.626v77.185C171.318,129.055,167.449,132.925,162.691,132.925z M37.309,41.487
			c-3.103,0-5.626,2.524-5.626,5.626v77.185c0,3.103,2.524,5.627,5.626,5.627h125.382c3.104,0,5.627-2.524,5.627-5.627V47.113
			c0-3.103-2.523-5.626-5.627-5.626H37.309z"/>
	</g>
	<g>
		<path fill="#F4F1E0" d="M51.948,66.61l1.377-1.713c0.752,0.656,1.664,1.265,2.785,1.265c0.896,0,1.44-0.448,1.44-1.104v-0.016
			c0-0.56-0.32-0.913-1.921-1.521c-1.984-0.769-3.217-1.521-3.217-3.441v-0.032c0-1.953,1.504-3.281,3.665-3.281
			c1.312,0,2.593,0.448,3.617,1.376l-1.296,1.761c-0.705-0.576-1.521-1.041-2.386-1.041c-0.8,0-1.296,0.4-1.296,0.977v0.016
			c0,0.64,0.384,0.944,2.129,1.665c1.952,0.769,3.009,1.601,3.009,3.345v0.032c0,2.081-1.585,3.361-3.762,3.361
			C54.67,68.259,53.181,67.763,51.948,66.61z"/>
		<path fill="#F4F1E0" d="M62.131,65.377v-5.842h2.257v5.17c0,1.008,0.448,1.521,1.217,1.521c0.768,0,1.248-0.512,1.248-1.521v-5.17
			h2.273v8.58h-2.273v-1.152c-0.48,0.688-1.12,1.312-2.192,1.312C63.043,68.275,62.131,67.154,62.131,65.377z"/>
		<path fill="#F4F1E0" d="M74.097,67.01v1.104h-2.272V56.558h2.272v4.162c0.496-0.72,1.185-1.345,2.321-1.345
			c1.696,0,3.265,1.393,3.265,4.322v0.256c0,2.929-1.553,4.322-3.265,4.322C75.266,68.275,74.577,67.65,74.097,67.01z M77.41,63.905
			v-0.16c0-1.457-0.721-2.385-1.665-2.385s-1.681,0.929-1.681,2.385v0.16c0,1.457,0.736,2.385,1.681,2.385
			S77.41,65.362,77.41,63.905z"/>
		<path fill="#F4F1E0" d="M81.359,67.09l0.992-1.601c0.769,0.592,1.585,0.96,2.289,0.96c0.641,0,0.912-0.304,0.912-0.656v-0.032
			c0-0.496-0.64-0.704-1.568-1.104c-1.217-0.528-2.257-1.136-2.257-2.593v-0.032c0-1.648,1.28-2.625,2.945-2.625
			c0.929,0,1.969,0.32,2.833,0.928l-0.912,1.633c-0.641-0.416-1.345-0.736-1.953-0.736c-0.544,0-0.832,0.272-0.832,0.608v0.032
			c0,0.448,0.64,0.705,1.553,1.121c1.248,0.592,2.272,1.216,2.272,2.577v0.032c0,1.777-1.312,2.673-3.025,2.673
			C83.601,68.275,82.399,67.938,81.359,67.09z"/>
		<path fill="#F4F1E0" d="M89.468,63.953v-0.192c0-2.545,1.649-4.386,3.97-4.386c1.232,0,2.065,0.417,2.802,1.153l-1.233,1.648
			c-0.416-0.432-0.848-0.768-1.536-0.768c-1.04,0-1.745,0.992-1.745,2.385v0.064c0,1.425,0.656,2.417,1.793,2.417
			c0.673,0,1.104-0.32,1.553-0.784l1.2,1.504c-0.704,0.785-1.568,1.312-2.913,1.312C91.085,68.307,89.468,66.482,89.468,63.953z"/>
		<path fill="#F4F1E0" d="M98.273,59.535h2.272v1.521c0.416-1.04,1.104-1.729,2.321-1.665v2.465h-0.096
			c-1.393,0-2.226,0.864-2.226,2.657v3.602h-2.272V59.535z"/>
		<path fill="#F4F1E0" d="M104.854,56.558h2.369v2.065h-2.369V56.558z M104.902,59.535h2.273v8.58h-2.273V59.535z"/>
		<path fill="#F4F1E0" d="M112.186,67.01v1.104h-2.273V56.558h2.273v4.162c0.496-0.72,1.184-1.345,2.32-1.345
			c1.697,0,3.266,1.393,3.266,4.322v0.256c0,2.929-1.553,4.322-3.266,4.322C113.354,68.275,112.664,67.65,112.186,67.01z
			 M115.498,63.905v-0.16c0-1.457-0.721-2.385-1.664-2.385c-0.945,0-1.682,0.929-1.682,2.385v0.16c0,1.457,0.736,2.385,1.682,2.385
			C114.777,66.29,115.498,65.362,115.498,63.905z"/>
		<path fill="#F4F1E0" d="M119.787,63.921v-0.144c0-2.545,1.584-4.402,3.746-4.402c2.449,0,3.648,2.001,3.648,4.562
			c0,0.128,0,0.4-0.016,0.736h-5.121c0.191,1.137,0.896,1.729,1.855,1.729c0.705,0,1.25-0.32,1.793-0.848l1.168,1.376
			c-0.783,0.864-1.775,1.376-3.057,1.376C121.531,68.307,119.787,66.594,119.787,63.921z M124.99,63.169
			c-0.098-1.185-0.609-1.921-1.457-1.921c-0.832,0-1.377,0.704-1.506,1.921H124.99z"/>
		<path fill="#F4F1E0" d="M134.203,65.97v-4.514h-0.865v-1.921h0.865v-2.193h2.271v2.193h1.697v1.921h-1.697v4.05
			c0,0.496,0.225,0.736,0.705,0.736c0.352,0,0.688-0.096,0.977-0.24v1.809c-0.449,0.256-0.992,0.448-1.682,0.448
			C135.162,68.259,134.203,67.747,134.203,65.97z"/>
		<path fill="#F4F1E0" d="M139.984,63.937v-0.176c0-2.545,1.729-4.386,4.051-4.386c2.32,0,4.018,1.809,4.018,4.37v0.176
			c0,2.545-1.713,4.386-4.033,4.386C141.697,68.307,139.984,66.498,139.984,63.937z M145.811,63.905v-0.112
			c0-1.393-0.703-2.449-1.791-2.449c-1.137,0-1.793,1.04-1.793,2.433v0.112c0,1.376,0.719,2.449,1.809,2.449
			C145.154,66.338,145.811,65.297,145.811,63.905z"/>
	</g>
	<path fill="#F4F1E0" d="M144.041,107.398c-1.469,0-2.674-1.229-2.674-2.965v-0.047c0-1.738,1.205-2.967,2.674-2.967
		c1.494,0,2.676,1.254,2.676,2.967v0.047C146.717,106.17,145.535,107.398,144.041,107.398 M142.443,111.23
		c1.953,0,3.396-0.939,4.287-2.025v2.025h4.58v-17.02h-4.58v5.281c-0.844-0.988-2.334-1.783-4.311-1.783
		c-3.086,0-5.76,2.482-5.76,6.725v0.047C136.66,108.652,139.334,111.23,142.443,111.23 M127.648,97.709h4.58v2.844
		c0.746-1.783,1.951-2.939,4.121-2.844v5.086h-0.385c-2.387,0-3.736,1.373-3.736,4.363v4.072h-4.58V97.709z M78.043,108.361
		c-0.94,0-1.615-0.529-1.615-1.422v-0.049c0-0.988,0.771-1.613,2.097-1.613c0.675,0,1.326,0.145,1.808,0.338v0.602
		C80.333,107.52,79.392,108.361,78.043,108.361 M76.403,111.23c1.712,0,2.941-0.674,3.856-1.662v1.662h4.507v-7.785
		c0-1.832-0.409-3.182-1.397-4.146c-1.037-1.035-2.628-1.59-4.966-1.59c-2.242,0-3.808,0.41-5.278,1.012l0.939,3.207
		c1.182-0.436,2.242-0.725,3.616-0.725c1.759,0,2.603,0.771,2.603,2.146v0.215c-0.747-0.287-1.928-0.506-3.132-0.506
		c-3.062,0-5.111,1.375-5.111,4.1v0.047C72.041,109.783,73.92,111.23,76.403,111.23 M64.042,106.922v-4.959v-3.664v-4.094h4.555
		v4.873h3.037v3.535h-3.037v3.416c0,0.916,0.41,1.303,1.253,1.303c0.603,0,1.181-0.168,1.736-0.434v3.566
		c-0.82,0.459-1.905,0.771-3.182,0.771C65.657,111.236,64.042,110.031,64.042,106.922 M85.415,111.23h4.579v-7.062
		c0-1.445,0.82-2.217,1.928-2.217c1.109,0,1.856,0.771,1.856,2.217v7.062h4.556v-8.533c0-2.965-1.663-4.988-4.435-4.988
		c-1.856,0-3.062,1.037-3.905,2.119v-2.119h-4.579V111.23z M109.047,104.434v-0.047c0-1.713-1.182-2.967-2.676-2.967
		c-1.471,0-2.676,1.229-2.676,2.967v0.047c0,1.736,1.205,2.965,2.676,2.965C107.865,107.398,109.047,106.17,109.047,104.434
		 M98.988,104.48v-0.047c0-4.242,2.676-6.725,5.76-6.725c1.977,0,3.469,0.795,4.311,1.783v-5.281h4.58v17.02h-4.58v-2.025
		c-0.891,1.086-2.334,2.025-4.285,2.025C101.664,111.23,98.988,108.652,98.988,104.48 M56.596,111.23
		c4.097,0,6.821-1.98,6.821-5.312v-0.047c0-3.053-2.411-4.414-6.267-5.229c-2.362-0.514-2.94-0.84-2.94-1.586V99.01
		c0-0.605,0.554-1.049,1.687-1.049c1.495,0,3.182,0.686,4.725,1.756l2.338-3.191c-1.832-1.422-4.073-2.314-6.942-2.314
		c-4.049,0-6.532,2.338-6.532,5.367v0.047c0,3.332,2.772,4.162,6.363,4.955c2.314,0.535,2.868,1.035,2.868,1.734v0.047
		c0,0.697-0.675,1.117-1.952,1.117c-1.953,0-3.784-0.676-5.471-1.957l-2.604,3.006C50.787,110.32,53.607,111.23,56.596,111.23
		 M122.572,106.217v-0.602c-0.482-0.193-1.133-0.338-1.809-0.338c-1.324,0-2.098,0.625-2.098,1.613v0.049
		c0,0.893,0.676,1.422,1.615,1.422C121.631,108.361,122.572,107.52,122.572,106.217 M114.279,107.205v-0.047
		c0-2.725,2.051-4.1,5.111-4.1c1.205,0,2.387,0.219,3.133,0.506v-0.215c0-1.375-0.844-2.146-2.604-2.146
		c-1.373,0-2.434,0.289-3.615,0.725l-0.939-3.207c1.471-0.602,3.037-1.012,5.277-1.012c2.34,0,3.93,0.555,4.965,1.59
		c0.988,0.965,1.398,2.314,1.398,4.146v7.785H122.5v-1.662c-0.916,0.988-2.145,1.662-3.857,1.662
		C116.16,111.23,114.279,109.783,114.279,107.205 M109.057,93.482h4.58v-8.645h2.916v-3.519h-3.014v-0.312
		c0-0.845,0.459-1.231,1.303-1.231c0.674,0,1.18,0.098,1.711,0.267v-3.23c-0.699-0.216-1.59-0.36-2.965-0.36
		c-1.566,0-2.627,0.337-3.424,1.132c-0.77,0.771-1.107,1.88-1.107,3.375v0.265v3.616V93.482z M70.959,84.861
		c1.64,0,2.675-0.891,2.675-2.217v-0.049c0-1.445-1.036-2.192-2.699-2.192h-2.344v4.458H70.959z M64.042,76.474h7.255
		c4.242,0,6.99,2.194,6.99,5.905v0.049c0,4.001-3.062,6.097-7.23,6.097h-2.464v4.98h-4.55V76.474z M129.238,93.506
		c2.844,0,4.578-1.209,5.785-3l-3.062-2.225c-0.699,0.846-1.398,1.355-2.506,1.355c-1.543,0-2.604-1.283-2.604-2.977v-0.049
		c0-1.596,1.084-2.782,2.58-2.782c1.084,0,1.783,0.532,2.434,1.377l3.084-2.322c-1.107-1.741-2.891-2.901-5.566-2.901
		c-4.123,0-6.967,2.977-6.967,6.676v0.049C122.416,90.41,125.285,93.506,129.238,93.506 M103.832,82.971h4.555v10.511h-4.555V82.971
		z M83.196,90.637c-0.939,0-1.615-0.529-1.615-1.422v-0.047c0-0.99,0.771-1.615,2.098-1.615c0.675,0,1.325,0.143,1.807,0.338v0.602
		C85.485,89.795,84.545,90.637,83.196,90.637 M81.556,93.506c1.711,0,2.941-0.676,3.857-1.664v1.664h4.508v-7.787
		c0-1.832-0.411-3.179-1.398-4.144c-1.036-1.037-2.627-1.591-4.965-1.591c-2.242,0-3.809,0.41-5.279,1.013l0.94,3.206
		c1.181-0.435,2.242-0.724,3.615-0.724c1.759,0,2.604,0.771,2.604,2.146v0.215c-0.747-0.287-1.929-0.506-3.134-0.506
		c-3.061,0-5.109,1.373-5.109,4.098v0.049C77.194,92.059,79.074,93.506,81.556,93.506 M90.571,86.709V86.66
		c0-3.7,2.844-6.676,6.966-6.676c2.676,0,4.459,1.16,5.568,2.901l-3.086,2.322c-0.65-0.846-1.35-1.377-2.436-1.377
		c-1.493,0-2.578,1.186-2.578,2.782v0.049c0,1.693,1.061,2.977,2.604,2.977c1.109,0,1.807-0.51,2.506-1.355l3.062,2.225
		c-1.205,1.791-2.941,3-5.785,3C93.439,93.506,90.571,90.41,90.571,86.709 M117.223,93.482h4.555V82.971h-4.555V93.482z
		 M117.223,78.341h4.555v3.758h-4.555V78.341z M103.832,82.099h4.555v-0.926v-0.187v-2.646h-4.555V82.099z"/>
</g>
</svg>
