<?xml version="1.0" encoding="utf-8"?>
<!-- Generator: Adobe Illustrator 15.0.2, SVG Export Plug-In . SVG Version: 6.00 Build 0)  -->
<!DOCTYPE svg PUBLIC "-//W3C//DTD SVG 1.1//EN" "http://www.w3.org/Graphics/SVG/1.1/DTD/svg11.dtd">
<svg version="1.1" id="website" xmlns="http://www.w3.org/2000/svg" xmlns:xlink="http://www.w3.org/1999/xlink" x="0px" y="0px"
	 width="200px" height="200px" viewBox="0 0 200 200" enable-background="new 0 0 200 200" xml:space="preserve">
<g>
	<path d="M107.567,177.953h-3V68.513h-9.135v109.44h-3V67.013c0-0.829,0.672-1.5,1.5-1.5h12.135c0.828,0,1.5,0.671,1.5,1.5V177.953z
		"/>
	<g>
		<path fill="#F5BB3A" d="M51.846,80.388c-1.629-1.629-2.545-3.839-2.545-6.143s0.916-4.514,2.544-6.143L93.857,26.09
			c3.393-3.393,8.893-3.393,12.286,0l42.012,42.011c1.63,1.629,2.545,3.839,2.545,6.143s-0.915,4.514-2.545,6.143l-42.012,42.009
			c-3.393,3.393-8.893,3.393-12.285,0L51.846,80.388z"/>
		<path d="M100,126.441c-2.721,0-5.279-1.061-7.203-2.984L50.785,81.448c-1.925-1.924-2.984-4.481-2.984-7.203
			s1.06-5.28,2.984-7.204L92.797,25.03c1.924-1.925,4.482-2.984,7.203-2.984s5.279,1.06,7.203,2.984l42.012,42.011
			c1.925,1.924,2.984,4.482,2.984,7.204s-1.06,5.279-2.984,7.204l-42.012,42.008C105.279,125.381,102.721,126.441,100,126.441z
			 M100,25.046c-1.92,0-3.725,0.748-5.082,2.105L52.906,69.162c-1.357,1.357-2.105,3.163-2.105,5.083s0.748,3.725,2.105,5.082
			l42.012,42.009c1.357,1.357,3.162,2.105,5.082,2.105s3.725-0.748,5.082-2.105l42.012-42.009c1.357-1.357,2.105-3.162,2.105-5.082
			s-0.748-3.726-2.105-5.082l-42.012-42.012C103.725,25.794,101.92,25.046,100,25.046z"/>
	</g>
	<g>
		<g>
			<path d="M85.76,51.28h2.219l1.715,7.395l1.715-7.395h2.156l-2.879,11.06h-2.047L85.76,51.28z"/>
			<path d="M95.283,51.06h2.107v1.951h-2.107V51.06z M95.314,53.86h2.045v8.432h-2.045V53.86z"/>
			<path d="M99.018,61.396l0.945-1.557c0.582,0.503,1.18,0.865,1.777,0.865c0.551,0,0.77-0.331,0.77-0.661v-0.017
				c0-0.455-0.424-0.707-1.305-1.227c-1.211-0.724-1.889-1.369-1.889-2.549V56.22c0-1.51,1.117-2.485,2.676-2.485
				c0.738,0,1.619,0.268,2.391,0.85l-0.896,1.558c-0.379-0.33-0.912-0.661-1.494-0.661c-0.488,0-0.74,0.283-0.74,0.614v0.031
				c0,0.408,0.408,0.676,1.307,1.211c1.289,0.771,1.887,1.463,1.887,2.549v0.031c0,1.604-1.18,2.533-2.705,2.533
				C100.953,62.45,99.932,62.183,99.018,61.396z"/>
			<path d="M106.26,51.06h2.109v1.951h-2.109V51.06z M106.291,53.86h2.045v8.432h-2.045V53.86z"/>
			<path d="M110.857,60.515V55.56h-0.676V53.86h0.676v-2.155h2.045v2.155h1.338v1.699h-1.338v4.404c0,0.441,0.205,0.629,0.613,0.629
				c0.236,0,0.488-0.062,0.709-0.172v1.636c-0.361,0.204-0.85,0.362-1.385,0.362C111.754,62.419,110.857,62.024,110.857,60.515z"/>
		</g>
	</g>
	<g>
		<path d="M61.931,68.737h2.736c2.297,0,3.808,1.29,3.808,3.744v0.031c0,2.518-1.604,3.744-3.744,3.839h-0.692v3.397h-2.107V68.737z
			 M64.589,74.433c1.164,0,1.762-0.756,1.762-1.873c0-1.211-0.551-1.887-1.746-1.887h-0.566v3.76H64.589z"/>
		<path d="M69.723,78.396l1.259-1.636c0.472,0.456,1.18,1.148,2.107,1.148c0.771,0,1.228-0.504,1.228-1.133
			c0-0.488-0.252-0.865-1.495-1.605c-1.667-0.99-2.643-1.855-2.643-3.397v-0.031c0-1.856,1.354-3.115,3.32-3.115
			c0.943,0,2.092,0.347,2.973,1.274l-1.29,1.621c-0.394-0.426-1.007-0.945-1.778-0.945c-0.629,0-1.101,0.379-1.101,0.961
			c0,0.519,0.251,0.896,1.778,1.84c1.557,0.96,2.359,1.81,2.359,3.272v0.031c0,1.888-1.463,3.179-3.32,3.179
			C72.02,79.86,70.808,79.481,69.723,78.396z"/>
		<path d="M78.43,68.737h2.155l1.936,4.264l1.918-4.264h2.172v11.012H84.55v-6.858l-2.029,4.373h-0.032l-2.029-4.342v6.827H78.43
			V68.737z"/>
		<path d="M91.483,68.69h2.124l3.067,11.059h-2.154l-0.598-2.297h-2.832l-0.582,2.297h-2.077L91.483,68.69z M93.419,75.581
			l-0.896-3.619l-0.929,3.619H93.419z"/>
		<path d="M97.802,74.369v-0.251c0-3.398,1.856-5.507,4.453-5.507c1.037,0,1.95,0.331,2.799,1.038l-1.164,1.73
			c-0.299-0.346-0.802-0.771-1.619-0.771c-1.354,0-2.312,1.306-2.312,3.509v0.22c0,2.548,1.085,3.603,2.328,3.603
			c0.361,0,0.707-0.094,0.896-0.221v-2.391h-1.494v-1.856h3.461v5.459c-0.85,0.534-1.794,0.944-3.006,0.944
			C99.706,79.876,97.802,78.034,97.802,74.369z"/>
		<path d="M107.55,77.437h2.312v2.312h-2.312V77.437z"/>
		<path d="M111.658,74.369v-0.251c0-3.588,1.762-5.507,4.138-5.507c1.148,0,1.967,0.425,2.627,1.069l-1.195,1.684
			c-0.41-0.408-0.881-0.739-1.447-0.739c-1.086,0-1.967,1.212-1.967,3.571v0.078c0,2.518,0.943,3.588,1.936,3.588
			c0.629,0,1.068-0.315,1.572-0.818l1.117,1.636c-0.818,0.786-1.715,1.196-2.77,1.196C113.216,79.876,111.658,77.956,111.658,74.369
			z"/>
		<path d="M119.66,74.433V74.07c0-3.477,1.636-5.507,4.011-5.507c2.376,0,3.996,2.03,3.996,5.491v0.362
			c0,3.461-1.636,5.506-4.012,5.506C121.28,79.923,119.66,77.894,119.66,74.433z M125.513,74.354v-0.204
			c0-2.486-0.803-3.65-1.857-3.65c-1.053,0-1.84,1.148-1.84,3.635v0.204c0,2.485,0.803,3.649,1.855,3.649
			C124.726,77.987,125.513,76.839,125.513,74.354z"/>
		<path d="M129.89,68.737h2.154l1.936,4.264l1.919-4.264h2.171v11.012h-2.061v-6.858l-2.029,4.373h-0.031l-2.029-4.342v6.827h-2.029
			V68.737z"/>
	</g>
	<g>
		<path fill="#F5BB3A" d="M109.562,96.491c-0.306-2.943-1.947-5.492-4.304-7.038c1.097,1.85,1.807,4.292,1.947,7.038H109.562z"/>
		<path fill="#F5BB3A" d="M92.795,96.491c0.141-2.746,0.851-5.188,1.947-7.038c-2.356,1.546-3.998,4.095-4.304,7.038H92.795z"/>
		<path fill="#F5BB3A" d="M90.438,98.49c0.306,2.943,1.947,5.492,4.304,7.039c-1.097-1.85-1.807-4.293-1.947-7.039H90.438z"/>
		<path fill="#F5BB3A" d="M107.205,98.49c-0.141,2.746-0.851,5.189-1.947,7.039c2.356-1.547,3.998-4.096,4.304-7.039H107.205z"/>
		<path d="M100,85.878c-6.404,0-11.614,5.21-11.614,11.612c0,6.404,5.21,11.613,11.614,11.613s11.614-5.209,11.614-11.613
			C111.614,91.088,106.404,85.878,100,85.878z M90.438,98.49h2.356c0.141,2.746,0.851,5.189,1.947,7.039
			C92.386,103.982,90.744,101.434,90.438,98.49z M109.562,96.491h-2.356c-0.141-2.746-0.851-5.188-1.947-7.038
			C107.614,90.999,109.256,93.548,109.562,96.491z M101,96.491v-8.426c2.204,0.82,3.959,4.275,4.205,8.426H101z M99,88.065v8.426
			h-4.205C95.041,92.341,96.796,88.886,99,88.065z M99,98.49v8.426c-2.204-0.82-3.959-4.275-4.205-8.426H99z M101,106.916V98.49
			h4.205C104.959,102.641,103.204,106.096,101,106.916z M94.742,89.453c-1.097,1.85-1.807,4.292-1.947,7.038h-2.356
			C90.744,93.548,92.386,90.999,94.742,89.453z M105.258,105.529c1.097-1.85,1.807-4.293,1.947-7.039h2.356
			C109.256,101.434,107.614,103.982,105.258,105.529z"/>
		<path fill="#F5BB3A" d="M99,106.916V98.49h-4.205C95.041,102.641,96.796,106.096,99,106.916z"/>
		<path fill="#F5BB3A" d="M101,98.49v8.426c2.204-0.82,3.959-4.275,4.205-8.426H101z"/>
		<path fill="#F5BB3A" d="M101,88.065v8.426h4.205C104.959,92.341,103.204,88.886,101,88.065z"/>
		<path fill="#F5BB3A" d="M99,96.491v-8.426c-2.204,0.82-3.959,4.275-4.205,8.426H99z"/>
	</g>
</g>
</svg>
